<?xml version="1.0" encoding="UTF-8"?>
<svg id="b" data-name="Version 3" xmlns="http://www.w3.org/2000/svg" width="130.52" height="54.33" viewBox="0 0 130.52 54.33">
  <defs>
    <style>
      .d {
        fill: #81bc06;
      }

      .e {
        fill: #fff;
      }

      .f {
        fill: #05a6f0;
      }

      .g {
        fill: #ffba08;
      }

      .h {
        fill: #f35325;
      }
    </style>
  </defs>
  <rect x="-1.44" y="-.5" width="133.4" height="55.34"/>
  <g>
    <path class="e" d="M52.19,17.63l2.09-5.6h1.05l2.07,5.6h-1l-.48-1.33h-2.26l-.46,1.33h-1ZM53.9,15.51h1.75l-.77-2.22c-.02-.06-.04-.11-.05-.15-.01-.04-.03-.1-.05-.17h-.02c-.02.06-.04.12-.05.16-.01.05-.03.1-.05.16l-.77,2.22Z"/>
    <path class="e" d="M61.32,13.63l-1.54,4h-.98l-1.47-4h.97l.88,2.61c.03.1.06.18.08.25.02.07.04.15.07.25h.02c.03-.1.05-.18.07-.25.02-.07.05-.14.07-.23l.91-2.63h.94Z"/>
    <path class="e" d="M64.82,17.63h-.88v-.5h-.02c-.14.19-.31.34-.52.44-.2.1-.43.15-.68.15-.37,0-.67-.11-.91-.32-.24-.21-.35-.49-.35-.83,0-.37.12-.66.35-.88.24-.22.57-.36,1.01-.41l1.11-.12v-.19c0-.25-.07-.43-.21-.56-.14-.12-.32-.19-.54-.19s-.41.05-.56.15c-.15.1-.28.24-.38.43l-.68-.35c.14-.27.35-.49.64-.66.29-.17.64-.26,1.04-.26.51,0,.89.13,1.16.4.27.26.4.65.4,1.15v2.55ZM63.95,16.01v-.22l-.96.11c-.22.02-.38.08-.48.18-.1.1-.15.23-.15.4s.06.31.17.41c.12.11.27.16.45.16.29,0,.53-.1.71-.29.18-.2.27-.44.27-.74Z"/>
    <path class="e" d="M66.31,12.9c-.17,0-.31-.05-.42-.17-.11-.11-.16-.24-.16-.4s.05-.29.16-.4c.11-.11.25-.16.42-.16s.32.05.42.16c.11.11.16.24.16.4s-.05.3-.16.4c-.11.11-.25.16-.42.16ZM66.76,17.63h-.91v-4h.91v4Z"/>
    <path class="e" d="M67.86,17.63v-5.92h.91v5.92h-.91Z"/>
    <path class="e" d="M72.93,17.63h-.88v-.5h-.02c-.14.19-.31.34-.52.44-.2.1-.43.15-.68.15-.37,0-.67-.11-.91-.32-.24-.21-.35-.49-.35-.83,0-.37.12-.66.35-.88.24-.22.57-.36,1.01-.41l1.11-.12v-.19c0-.25-.07-.43-.21-.56-.14-.12-.32-.19-.54-.19s-.41.05-.56.15c-.15.1-.28.24-.38.43l-.68-.35c.14-.27.35-.49.64-.66.29-.17.64-.26,1.04-.26.51,0,.89.13,1.16.4.27.26.4.65.4,1.15v2.55ZM72.05,16.01v-.22l-.96.11c-.22.02-.38.08-.48.18-.1.1-.15.23-.15.4s.06.31.17.41c.12.11.27.16.45.16.29,0,.53-.1.71-.29.18-.2.27-.44.27-.74Z"/>
    <path class="e" d="M74.88,17.2h-.02v.43h-.91v-5.92h.91v2.47h.02c.15-.21.34-.37.57-.48.23-.11.49-.17.78-.17.53,0,.95.18,1.24.53s.44.84.44,1.46c0,.66-.16,1.2-.49,1.59s-.77.6-1.34.6c-.27,0-.5-.04-.71-.13-.2-.09-.37-.22-.5-.39ZM74.86,15.46v.49c0,.29.1.54.29.74.19.2.44.3.75.3.35,0,.62-.13.81-.38.19-.25.28-.6.28-1.05,0-.41-.09-.72-.27-.95s-.42-.33-.74-.33c-.33,0-.6.11-.81.33-.21.22-.31.51-.31.85Z"/>
    <path class="e" d="M78.76,17.63v-5.92h.91v5.92h-.91Z"/>
    <path class="e" d="M84.2,15.85h-2.76c0,.39.11.68.31.87.2.19.45.29.74.29.21,0,.39-.05.55-.15s.3-.24.41-.44l.7.38c-.18.29-.42.52-.7.68-.28.16-.62.24-1,.24-.59,0-1.06-.18-1.41-.53-.35-.35-.53-.86-.53-1.53s.18-1.15.54-1.54c.36-.39.82-.59,1.37-.59s1,.17,1.31.5.46.82.46,1.46v.35ZM83.32,15.2c0-.31-.08-.55-.23-.73s-.37-.26-.64-.26c-.28,0-.51.09-.69.28-.18.19-.28.42-.32.7h1.89Z"/>
    <path class="e" d="M88.71,17.72c-.63,0-1.14-.19-1.51-.56-.37-.37-.56-.87-.56-1.5,0-.64.2-1.15.59-1.54.39-.39.9-.58,1.53-.58s1.13.19,1.49.57.55.88.55,1.48-.19,1.13-.58,1.53c-.38.4-.89.6-1.52.6ZM88.74,16.99c.36,0,.64-.12.84-.37s.3-.58.3-1-.1-.73-.3-.97-.48-.37-.83-.37-.64.13-.86.38-.32.58-.32.99.11.75.32.99.5.36.86.36Z"/>
    <path class="e" d="M95.21,17.63h-.91v-2.34c0-.33-.07-.58-.2-.76-.13-.17-.33-.26-.59-.26-.28,0-.51.1-.69.3s-.27.46-.27.77v2.28h-.91v-4h.91v.54h.02c.14-.2.32-.36.55-.47.23-.11.47-.17.73-.17.44,0,.78.14,1.01.42s.35.68.35,1.21v2.46Z"/>
  </g>
  <g>
    <path class="e" d="M61.19,29.87h-1.38v-5.36c0-.22,0-.44,0-.64s0-.44.02-.7h-.03c-.04.11-.07.21-.11.3s-.06.18-.1.28l-2.47,6.12h-.96l-2.47-6.07c-.04-.09-.07-.17-.1-.27s-.08-.21-.13-.37h-.04c.01.23.02.47.02.72s0,.51,0,.8v5.19h-1.31v-8.4h1.98l2.19,5.46c.08.2.15.37.2.51s.1.29.15.45h.04c.07-.19.13-.36.19-.51s.12-.31.18-.47l2.22-5.44h1.89v8.4Z"/>
    <path class="e" d="M63.68,22.77c-.26,0-.47-.08-.63-.25s-.24-.37-.24-.6.08-.44.24-.6.37-.25.63-.25.47.08.64.25.24.37.24.6-.08.44-.24.61-.37.24-.64.24ZM64.36,29.87h-1.37v-6h1.37v6Z"/>
    <path class="e" d="M71.12,28.75c-.27.42-.61.74-1.03.95s-.88.31-1.39.31c-.97,0-1.72-.28-2.26-.83s-.81-1.29-.81-2.2c0-1,.29-1.8.86-2.38s1.33-.87,2.25-.87c.52,0,.99.11,1.41.33s.73.54.95.98l-1.07.54c-.19-.27-.39-.46-.6-.57s-.46-.17-.74-.17c-.48,0-.88.18-1.2.54s-.47.86-.47,1.51.16,1.13.47,1.48.73.52,1.25.52c.27,0,.51-.06.74-.17s.43-.3.61-.57l1.05.6Z"/>
    <path class="e" d="M75.76,25.09c-.11-.04-.22-.08-.34-.1s-.24-.04-.37-.04c-.4,0-.73.18-.98.54s-.38.83-.38,1.41v2.97h-1.37v-6h1.37v1.08h.02c.14-.38.35-.68.62-.88s.59-.31.95-.31c.15,0,.29.01.42.04s.27.07.42.13l-.38,1.16Z"/>
    <path class="e" d="M79.55,30.01c-.95,0-1.7-.28-2.26-.84s-.84-1.31-.84-2.26c0-.96.3-1.73.89-2.31s1.36-.88,2.3-.88,1.69.29,2.24.86.82,1.32.82,2.23-.29,1.69-.86,2.29-1.34.9-2.28.9ZM79.6,28.9c.54,0,.96-.18,1.25-.55s.45-.87.45-1.5-.15-1.09-.45-1.46-.72-.55-1.25-.55-.96.19-1.28.57-.48.87-.48,1.48.16,1.12.47,1.48.75.54,1.29.54Z"/>
    <path class="e" d="M83.59,28.88l.84-.71c.21.29.44.5.69.62s.52.18.83.18.54-.07.73-.2.28-.32.28-.57c0-.19-.08-.35-.25-.49s-.43-.24-.79-.3c-.77-.14-1.31-.37-1.61-.67-.3-.3-.45-.68-.45-1.14,0-.56.2-1.01.6-1.36s.91-.51,1.54-.51c.43,0,.83.08,1.2.23.37.15.66.39.87.7l-.83.69c-.17-.2-.35-.35-.55-.44s-.43-.14-.7-.14-.5.06-.67.18-.24.29-.24.51c0,.2.08.35.23.46s.45.21.89.29c.67.12,1.17.33,1.51.63s.5.72.5,1.24c0,.6-.22,1.07-.65,1.42s-.96.51-1.6.51c-.54,0-1.01-.1-1.41-.3s-.71-.48-.94-.83Z"/>
    <path class="e" d="M92.17,30.01c-.95,0-1.7-.28-2.26-.84s-.84-1.31-.84-2.26c0-.96.3-1.73.89-2.31s1.36-.88,2.3-.88,1.69.29,2.24.86.82,1.32.82,2.23-.29,1.69-.86,2.29-1.34.9-2.28.9ZM92.22,28.9c.54,0,.96-.18,1.25-.55s.45-.87.45-1.5-.15-1.09-.45-1.46-.72-.55-1.25-.55-.96.19-1.28.57-.48.87-.48,1.48.16,1.12.47,1.48.75.54,1.29.54Z"/>
    <path class="e" d="M99.58,22.15c-.1-.07-.21-.12-.31-.16s-.23-.06-.35-.06c-.26,0-.45.08-.59.24s-.2.4-.2.71v.97h1.39v1.07h-1.39v4.93h-1.36v-4.93h-1.02v-1.07h1.02v-.98c0-.62.18-1.12.55-1.49s.88-.55,1.54-.55c.22,0,.44.03.65.08s.42.13.62.24l-.56.98Z"/>
    <path class="e" d="M104.16,29.46c-.18.17-.39.3-.63.4s-.51.14-.8.14c-.57,0-1-.14-1.29-.43s-.44-.71-.44-1.26v-3.38h-1.01v-1.07h1.01v-1.47l1.36-.24v1.71h1.53v1.07h-1.53v3.33c0,.24.05.41.14.53s.24.17.44.17c.1,0,.2-.02.3-.06s.2-.12.31-.23l.61.79Z"/>
    <path class="e" d="M61.19,42.37h-1.38v-5.36c0-.22,0-.44,0-.64s0-.44.02-.7h-.03c-.04.11-.07.21-.11.3s-.06.18-.1.28l-2.47,6.12h-.96l-2.47-6.07c-.04-.09-.07-.17-.1-.27s-.08-.21-.13-.37h-.04c.01.23.02.47.02.72s0,.51,0,.8v5.19h-1.31v-8.4h1.98l2.19,5.46c.08.2.15.37.2.51s.1.29.15.45h.04c.07-.19.13-.36.19-.51s.12-.31.18-.47l2.22-5.44h1.89v8.4Z"/>
    <path class="e" d="M67.57,42.37h-1.32v-.74h-.02c-.21.29-.47.51-.77.66s-.64.23-1.02.23c-.55,0-1.01-.16-1.36-.47s-.53-.73-.53-1.24c0-.55.18-.99.53-1.33s.86-.54,1.52-.61l1.66-.19v-.29c0-.37-.1-.65-.31-.83s-.48-.28-.81-.28-.61.07-.84.22-.41.36-.56.64l-1.02-.52c.2-.4.52-.73.96-.99s.96-.39,1.56-.39c.76,0,1.34.2,1.74.59s.6.97.6,1.73v3.82ZM66.26,39.93v-.33l-1.45.16c-.33.04-.57.13-.73.28s-.23.35-.23.6.09.46.26.62.4.24.68.24c.44,0,.79-.15,1.06-.44s.4-.67.4-1.12Z"/>
    <path class="e" d="M72.54,37.59c-.11-.04-.22-.08-.34-.1s-.24-.04-.37-.04c-.4,0-.73.18-.98.54s-.38.83-.38,1.41v2.97h-1.37v-6h1.37v1.08h.02c.14-.38.35-.68.62-.88s.59-.31.95-.31c.15,0,.29.01.42.04s.27.07.42.13l-.38,1.16Z"/>
    <path class="e" d="M79.16,42.37h-1.71l-2.3-2.87h-.02v2.87h-1.37v-8.88h1.37v5.59h.02l2.25-2.71h1.6l-2.46,2.86,2.62,3.14Z"/>
    <path class="e" d="M84.96,39.7h-4.14c.01.58.17,1.01.47,1.3s.67.44,1.12.44c.31,0,.59-.07.83-.22s.45-.36.62-.65l1.05.57c-.27.44-.62.78-1.05,1.01s-.92.36-1.5.36c-.88,0-1.59-.27-2.12-.8s-.8-1.29-.8-2.29.27-1.72.82-2.31,1.23-.88,2.05-.88,1.5.25,1.96.76.69,1.23.69,2.19v.53ZM83.64,38.73c0-.47-.12-.83-.35-1.09s-.55-.39-.96-.39-.77.14-1.04.42-.43.63-.48,1.05h2.83Z"/>
    <path class="e" d="M89.73,41.96c-.18.17-.39.3-.63.4s-.51.14-.8.14c-.57,0-1-.14-1.29-.43s-.44-.71-.44-1.26v-3.38h-1.01v-1.07h1.01v-1.47l1.36-.24v1.71h1.53v1.07h-1.53v3.33c0,.24.05.41.14.53s.24.17.44.17c.1,0,.2-.02.3-.06s.2-.12.31-.23l.61.79Z"/>
    <path class="e" d="M92.17,41.74h-.02v3.39h-1.37v-8.76h1.37v.86h.02c.24-.33.53-.58.87-.75s.73-.25,1.15-.25c.8,0,1.42.26,1.86.79s.67,1.26.67,2.2-.25,1.78-.75,2.38-1.16.91-2,.91c-.39,0-.73-.06-1.03-.19s-.56-.32-.78-.57ZM92.13,39.11v.74c0,.44.15.81.44,1.11s.67.45,1.12.45c.51,0,.91-.19,1.2-.58s.44-.91.44-1.56-.13-1.12-.4-1.44-.64-.48-1.1-.48c-.5,0-.9.17-1.22.5s-.47.76-.47,1.28Z"/>
    <path class="e" d="M97.99,42.37v-8.88h1.37v8.88h-1.37Z"/>
    <path class="e" d="M105.59,42.37h-1.32v-.74h-.02c-.21.29-.47.51-.77.66s-.64.23-1.02.23c-.55,0-1.01-.16-1.36-.47s-.53-.73-.53-1.24c0-.55.18-.99.53-1.33s.86-.54,1.52-.61l1.66-.19v-.29c0-.37-.1-.65-.31-.83s-.48-.28-.81-.28-.61.07-.84.22-.41.36-.56.64l-1.02-.52c.2-.4.52-.73.96-.99s.96-.39,1.56-.39c.76,0,1.34.2,1.74.59s.6.97.6,1.73v3.82ZM104.28,39.93v-.33l-1.45.16c-.33.04-.57.13-.73.28s-.23.35-.23.6.09.46.26.62.4.24.68.24c.44,0,.79-.15,1.06-.44s.4-.67.4-1.12Z"/>
    <path class="e" d="M112.24,41.25c-.27.42-.61.74-1.03.95s-.88.31-1.39.31c-.97,0-1.72-.28-2.26-.83s-.81-1.29-.81-2.2c0-1,.29-1.8.86-2.38s1.33-.87,2.25-.87c.52,0,.99.11,1.41.33s.73.54.95.98l-1.07.54c-.19-.27-.39-.46-.6-.57s-.46-.17-.74-.17c-.48,0-.88.18-1.2.54s-.47.86-.47,1.51.16,1.13.47,1.48.73.52,1.25.52c.27,0,.51-.06.74-.17s.43-.3.61-.57l1.05.6Z"/>
    <path class="e" d="M118.6,39.7h-4.14c.01.58.17,1.01.47,1.3s.67.44,1.12.44c.31,0,.59-.07.83-.22s.45-.36.62-.65l1.05.57c-.27.44-.62.78-1.05,1.01s-.92.36-1.5.36c-.88,0-1.59-.27-2.12-.8s-.8-1.29-.8-2.29.27-1.72.82-2.31,1.23-.88,2.05-.88,1.5.25,1.96.76.69,1.23.69,2.19v.53ZM117.28,38.73c0-.47-.12-.83-.35-1.09s-.55-.39-.96-.39-.77.14-1.04.42-.43.63-.48,1.05h2.83Z"/>
  </g>
  <g>
    <rect class="h" x="11.9" y="11.48" width="15.03" height="15.03"/>
    <rect class="d" x="28.24" y="11.48" width="15.03" height="15.03"/>
    <rect class="f" x="11.9" y="27.82" width="15.03" height="15.03"/>
    <rect class="g" x="28.24" y="27.82" width="15.03" height="15.03"/>
  </g>
</svg>